<?xml version="1.0" encoding="utf-8"?>
<!-- Generator: Adobe Illustrator 27.5.0, SVG Export Plug-In . SVG Version: 6.00 Build 0)  -->
<svg version="1.1" xmlns="http://www.w3.org/2000/svg" xmlns:xlink="http://www.w3.org/1999/xlink" x="0px" y="0px"
	 viewBox="0 0 500 500" style="enable-background:new 0 0 500 500;" xml:space="preserve">
<g id="BACKGROUND">
	<polygon style="fill:#FFFFFF;" points="0,0 0,124.501 0,235.856 0,402.725 0,500 147.35,500 500,500 500,232.207 500,140.873 
		500,81.61 500,12.454 500,0 	"/>
</g>
<g id="OBJECTS">
	<circle style="fill:#FFF2F3;" cx="251.28" cy="198.858" r="155.719"/>
	<g>
		<polygon style="fill:#F5BFC3;" points="129.351,384.041 215.378,390.094 180.078,430.5 91.604,421.887 		"/>
		<g>
			<path style="fill:#410305;" d="M134.575,396.189c1.621-0.507,4.392,0.055,5.323,1.55c1.176,1.888,4.173,0.151,2.991-1.748
				c-1.849-2.969-6.253-4.094-9.509-3.049c-3.653,1.172-4.294,5.411-1.334,7.718c1.408,1.097,3.145,1.256,4.655,2.114
				c1.888,1.072,1.426,3.385,0.218,4.813c-2.409,2.845-7.944,4.544-10.36,0.816c-1.208-1.864-4.208-0.13-2.991,1.748
				c4.235,6.535,15.151,3.973,17.533-3.005c1.249-3.658-0.806-6.783-4.214-8.045C135.972,398.762,131.606,397.118,134.575,396.189z"
				/>
			<path style="fill:#410305;" d="M164.254,396.95c-1.029,2.773-2.213,5.477-3.535,8.11c-2.953-0.247-5.841-0.795-8.678-1.607
				c0.755-2.187,1.404-4.412,1.944-6.67c0.518-2.167-2.821-3.091-3.34-0.921c-1.363,5.701-3.414,11.16-6.171,16.333
				c-1.048,1.966,1.941,3.718,2.991,1.748c1.254-2.352,2.368-4.768,3.355-7.235c2.67,0.78,5.389,1.316,8.15,1.638
				c-0.92,1.644-1.889,3.261-2.919,4.845c-1.219,1.874,1.778,3.612,2.991,1.748c3.487-5.361,6.328-11.075,8.553-17.069
				C168.37,395.779,165.024,394.876,164.254,396.95z"/>
			<path style="fill:#410305;" d="M187.62,400.074c-3.367-4.607-10.473-4.059-14.776-0.999c-2.663,1.894-3.778,5.203-3.11,8.118
				c-1.132,0.908-2.076,2.043-2.705,3.336c-1.332,2.738-1.535,6.088,0.943,8.242c2.674,2.324,6.304,1.763,9.467,1.03
				c2.17-0.503,1.252-3.843-0.921-3.34c-1.869,0.433-4.321,1.122-6.04-0.116c-1.75-1.26-0.853-3.709,0.172-5.165
				c0.214-0.303,0.456-0.582,0.714-0.845c0.461,0.509,1.008,0.966,1.651,1.351c2.058,1.231,4.914,1.513,7.072,0.365
				c2.312-1.231,3.005-4.167,0.645-5.776c-2.355-1.605-5.207-1.739-7.76-0.866c-0.037-1.044,0.331-2.119,1.211-2.973
				c2.305-2.239,8.253-3.618,10.449-0.613C185.932,403.603,188.939,401.877,187.62,400.074z M177.944,408.735
				c0.479,0.2,0.688,0.06,0.373,0.315c-0.262,0.212-0.907,0.245-1.202,0.256c-0.999,0.039-1.865-0.269-2.544-0.785
				c0.202-0.045,0.407-0.083,0.615-0.107C176.07,408.311,177.112,408.388,177.944,408.735z"/>
		</g>
	</g>
	<g>
		<polygon style="fill:#F5BFC3;" points="294.012,393.793 374.717,387.068 402.964,418.517 310.153,432.083 		"/>
		<g>
			<path style="fill:#410305;" d="M348.196,414.757c-2.966-4.482-5.931-8.964-8.897-13.447c-1.225-1.851-4.225-0.118-2.991,1.748
				c0.973,1.47,1.946,2.94,2.918,4.411c-2.444,0.623-4.887,1.245-7.331,1.868c-1.216-2.119-2.403-4.255-3.558-6.408
				c-1.054-1.965-4.045-0.218-2.991,1.748c2.388,4.454,4.907,8.833,7.556,13.137c1.166,1.895,4.163,0.157,2.99-1.748
				c-0.738-1.199-1.464-2.406-2.182-3.617c2.513-0.64,5.025-1.281,7.538-1.921c1.318,1.992,2.637,3.985,3.955,5.977
				C346.43,418.355,349.431,416.623,348.196,414.757z"/>
			<path style="fill:#410305;" d="M363.307,409.211c-2.397,1.904-7.11,4.206-9.462,0.935c-0.211-0.293-0.356-0.583-0.452-0.868
				c0.937,0.1,1.877,0.087,2.763-0.044c2.14-0.315,4.761-1.23,5.486-3.522c0.71-2.245-0.967-4.319-3.173-4.672
				c-2.478-0.397-5.378,1.37-6.992,3.144c-0.25,0.275-0.471,0.565-0.667,0.864c-0.822-0.536-1.427-1.305-1.609-2.331
				c-0.262-1.476,0.762-2.827,1.99-3.523c1.827-1.035,4.062-0.731,5.997-0.224c2.158,0.565,3.079-2.775,0.921-3.34
				c-4.752-1.244-11.44-0.195-12.331,5.673c-0.513,3.376,1.388,5.723,4.016,6.976c-0.022,0.981,0.192,1.98,0.662,2.939
				c1.277,2.604,4.09,3.961,6.909,3.98c3.201,0.022,5.964-1.611,8.391-3.539C367.5,410.273,365.035,407.837,363.307,409.211z
				 M357.47,404.491c1.06-0.134,0.981,0.276,0.176,0.751c-0.805,0.475-1.903,0.738-3.042,0.763c0.129-0.11,0.263-0.217,0.405-0.318
				C355.702,405.191,356.609,404.599,357.47,404.491z"/>
		</g>
	</g>
	<g>
		<ellipse style="fill:#FFF2F3;" cx="247.866" cy="442.691" rx="63.747" ry="28.885"/>
		<g>
			<g>
				<g>
					<path style="fill:#FFC7CA;" d="M211.183,411.598v11.726c0,0-24.365,7.289-20.423,20.917c0,0,2.951,4.197,14.843,2.218
						c11.892-1.979,29.977-12.677,29.977-12.677l5.641-1.699v-20.486H211.183z"/>
					<path style="fill:#00798F;" d="M246.297,327.058l0.286-22.261l-38.643-2.816h-2.337v18.96c0.321,0.201,0.652,0.359,1.007,0.447
						C219.502,325.771,232.968,328.04,246.297,327.058z"/>
					<path style="fill:#008FAC;" d="M206.611,321.388c-0.355-0.089-0.686-0.246-1.007-0.447v92.57c0,0,22.49,11.266,39.581,0
						l1.112-86.453C232.968,328.04,219.502,325.771,206.611,321.388z"/>
					<path style="fill:#FF8C8D;" d="M209.509,445.574c0,0-0.888-12.595-12.643-15.074c0,0-3.886-0.851,1.812-4.65
						c5.698-3.799,8.459-5.324,12.506-2.526c4.047,2.798,9.331,8.926,9.538,18.073l18.93-7.666c0,0,0.967-1.536,1.569-4.437
						c0.602-2.901,4.943,1.441,2.23,6.597c-2.714,5.156-11.99,9.093-23.497,12.959c-11.507,3.865-26.033,7.803-29.624,0
						c-3.591-7.803,2.18-13.947,2.18-13.947S185.064,449.831,209.509,445.574z"/>
				</g>
				<path style="fill:#F4686F;" d="M238.601,432.292c-7.464,3.842-15.367,6.662-23.327,9.281
					c-6.609,2.174-15.291,6.153-21.936,2.177c-1.917-1.147-3.661,1.846-1.748,2.991c7.298,4.366,16.031,0.974,23.388-1.43
					c8.652-2.826,17.263-5.855,25.372-10.029C242.331,434.262,240.581,431.273,238.601,432.292z"/>
			</g>
			<g>
				<g>
					<path style="fill:#FFC7CA;" d="M268.328,411.598v11.726c0,0-24.365,7.289-20.422,20.917c0,0,2.951,4.197,14.843,2.218
						c11.892-1.979,29.977-12.677,29.977-12.677l5.641-1.699v-20.486H268.328z"/>
					<path style="fill:#00798F;" d="M303.441,327.058l0.286-22.261l-38.643-2.816h-2.337v18.96c0.321,0.201,0.653,0.359,1.007,0.447
						C276.646,325.771,290.113,328.04,303.441,327.058z"/>
					<path style="fill:#008FAC;" d="M263.755,321.388c-0.354-0.089-0.686-0.246-1.007-0.447v92.57c0,0,22.49,11.266,39.581,0
						l1.112-86.453C290.113,328.04,276.646,325.771,263.755,321.388z"/>
					<path style="fill:#FF8C8D;" d="M266.653,445.574c0,0-0.888-12.595-12.643-15.074c0,0-3.886-0.851,1.812-4.65
						c5.698-3.799,8.459-5.324,12.505-2.526c4.047,2.798,9.331,8.926,9.538,18.073l18.93-7.666c0,0,0.967-1.536,1.569-4.437
						c0.602-2.901,4.943,1.441,2.23,6.597c-2.714,5.156-11.99,9.093-23.497,12.959c-11.507,3.865-26.033,7.803-29.624,0
						c-3.591-7.803,2.18-13.947,2.18-13.947S242.208,449.831,266.653,445.574z"/>
				</g>
				<path style="fill:#F4686F;" d="M295.746,432.292c-7.464,3.842-15.367,6.662-23.327,9.281
					c-6.609,2.174-15.291,6.153-21.936,2.177c-1.917-1.147-3.661,1.846-1.748,2.991c7.298,4.366,16.031,0.974,23.388-1.43
					c8.652-2.826,17.263-5.855,25.372-10.029C299.476,434.262,297.726,431.273,295.746,432.292z"/>
			</g>
		</g>
		<g>
			<path style="fill:#FFC7CA;" d="M297.55,220.47l11.283,84.814c0,0,0.509,15.273,4.41,14.948s4.552-15.931,4.552-15.931
				s3.901,1.625,4.227,4.227c0.325,2.601-3.251,17.231,0,18.531c3.251,1.301,6.502-7.803,6.502-7.803s3.576-0.141,5.527-6.573
				c1.951-6.432-5.202-26.914-5.202-26.914l-6.502-74.11L297.55,220.47z"/>
			<path style="fill:#FF8C8D;" d="M329.702,301.31c-0.761-2.076-4.11-1.179-3.34,0.921c1.815,4.947,2.197,10.177,1.005,15.318
				c-0.503,2.169,2.835,3.095,3.34,0.921C332.033,312.751,331.726,306.828,329.702,301.31z"/>
		</g>
		<g>
			<path style="fill:#FFC7CA;" d="M189.815,200.748c-0.217,2.428-2.04,11.469-2.04,11.469l-17.951-19.803c0,0,1.453-13.166,0-20.143
				c-1.453-6.976-13.262-8.124-18.196-7.918c0,0,0.215-11.212-12.402-12.216c0,0-9.683,5.532-4.613,14.611
				c0,0-7.414,3.399-1.79,11.911c0,0-1.88,11.175,10.298,13.614c0,0,37.27,60.544,46.694,69.622
				c9.425,9.079,17.805,4.721,21.604-2.905c3.799-7.626,7.224-49.426,7.224-49.426L189.815,200.748z"/>
			<path style="fill:#410305;" d="M150.83,165.641c0.137-0.244,0.332-0.452,0.604-0.575c0.745-0.337,1.411-0.514,2.058-0.436
				l-6.89-37.283l-3.406,0.629l7.044,38.116C150.402,165.909,150.605,165.749,150.83,165.641z"/>
			<path style="fill:#410305;" d="M156.03,178.365l-0.482-2.607c-0.141,0.087-0.283,0.168-0.426,0.241
				c-0.849,0.436-1.966,0.801-2.94,0.604l0.448,2.424l12.807,56.82l3.379-0.762L156.03,178.365z"/>
			<path style="fill:#FF8C8D;" d="M162.771,181.417c1.056-0.653,1.464-2.263,0.049-2.863c-3.612-1.532-7.724-2.766-10.99-4.981
				c-1.222-0.828-2.361-1.985-2.421-3.537c-0.047-1.232,0.453-2.409,1.729-2.658c2.186-0.426,1.26-3.765-0.921-3.34
				c-1.134,0.221-2.04,0.783-2.721,1.547c-1.453-2.166-3.814-3.71-6.405-4.104c-0.932-0.142-1.85,0.236-2.13,1.21
				c-0.235,0.817,0.286,1.99,1.21,2.13c2.376,0.361,4.171,1.746,5.126,3.952c0.137,0.315,0.39,0.538,0.693,0.675
				c-0.061,1.016,0.089,2.05,0.447,2.986c-4.026-1.409-8.172-3.197-10.468-6.934c-1.103-1.795-1.707-3.979-1.038-6.042
				c0.621-1.919,2.193-3.674,4.295-3.858c2.203-0.193,2.224-3.658,0-3.463c-6.23,0.546-9.449,7.306-7.334,12.87
				c0.214,0.562,0.46,1.093,0.732,1.6c-3.642,3.381-2.575,8.333,0.198,12.051c-0.042,0.044-0.082,0.091-0.122,0.142
				c-5.88,7.547,6.25,13.815,12.51,13.608c3.552-0.117,6.964-1.848,8.661-5.059c1.419-2.686,1.599-5.866,0.46-8.637
				c1.654,0.727,3.329,1.413,4.999,2.105c-0.913,3.234-0.459,6.677,1.171,9.659c1.069,1.956,4.061,0.211,2.991-1.748
				C162.217,186.393,162.025,183.878,162.771,181.417z M134.622,169.417c3.284,3.592,8.243,5.473,12.88,7.035
				c0.764,0.257,1.369-0.015,1.734-0.5c0.036,0.028,0.075,0.053,0.112,0.08c-0.137,0.17-0.249,0.378-0.322,0.63
				c-1.277,4.41-6.593,4.929-10.086,2.943C136.072,177.975,131.539,172.596,134.622,169.417z M145.729,188.916
				c-2.504,0.253-5.109-0.542-7.281-1.745c-1.759-0.974-5.149-3.545-3.297-5.921c0.016-0.021,0.03-0.043,0.045-0.064
				c0.492,0.417,1.002,0.797,1.524,1.126c4.699,2.966,11.406,2.371,14.457-2.172C152.74,184.065,150.086,188.476,145.729,188.916z"
				/>
			<path style="fill:#FF8C8D;" d="M200.241,228.465c-3.759-5.71-7.924-11.137-12.465-16.247c-1.483-1.67-3.926,0.787-2.449,2.449
				c4.348,4.893,8.324,10.079,11.924,15.546C198.471,232.067,201.471,230.334,200.241,228.465z"/>
			<polygon style="fill:#F5BFC3;" points="107.75,133.099 174.68,123.749 168.445,74.015 100.604,83.004 			"/>
			<g>
				<path style="fill:#410305;" d="M139.323,101.542c-0.799-3.19-1.856-6.836-4.113-9.335c-2.217-2.454-5.676-3.012-8.488-1.21
					c-0.637,0.408-1.187,0.892-1.664,1.428c-0.042-0.027-0.083-0.056-0.126-0.082c-2.636-1.606-6.511-1.772-8.139,1.316
					c-1.851,3.508-0.868,8.675,0.235,12.261c1.311,4.265,3.494,8.206,5.722,12.047c1.118,1.927,4.112,0.186,2.991-1.748
					c-3.146-5.424-6.531-11.365-6.39-17.837c0.028-1.306-0.056-3.618,1.669-3.755c0.8-0.063,1.604,0.29,2.313,0.774
					c-0.464,1.333-0.652,2.782-0.59,4.224c0.115,2.701,0.577,8.379,4.326,8.232c3.828-0.15,4.073-4.702,3.468-7.522
					c-0.442-2.061-1.455-4.046-2.865-5.661c1.707-1.844,4.172-1.53,5.671,0.776c1.563,2.405,2.329,5.48,2.93,8.246
					c0.733,3.372,0.958,6.8,0.798,10.243c-0.104,2.228,3.36,2.223,3.464,0C140.727,109.776,140.337,105.589,139.323,101.542z
					 M127.238,104.029c-0.661,0.026-1.007-3.833-1.033-4.402c-0.016-0.348-0.019-0.7-0.004-1.051
					c0.21,0.376,0.397,0.765,0.552,1.165C126.896,100.108,127.862,104.004,127.238,104.029z"/>
				<path style="fill:#410305;" d="M158.389,110.635c-3.812,1.633-8.292-0.659-8.896-4.653c0.225,0.075,0.453,0.146,0.683,0.205
					c2.434,0.628,5.406,0.348,7.24-1.544c1.899-1.96,1.491-4.983-0.443-6.746c-2.349-2.14-5.811-1.505-8.066,0.416
					c-0.703,0.599-1.282,1.324-1.738,2.122c-1.108-1.267-1.837-2.85-1.9-4.419c-0.16-3.969,4.149-7.09,7.841-5.773
					c2.103,0.75,3.009-2.595,0.921-3.34c-4.98-1.776-10.795,1.771-11.986,6.833c-0.92,3.909,0.926,7.876,3.968,10.327
					c-0.058,0.543-0.071,1.089-0.034,1.629c0.48,7.114,7.976,10.582,14.16,7.933C162.18,112.75,160.418,109.766,158.389,110.635z
					 M152.93,100.028c0.941-0.144,2.56,0.481,2.254,1.725c-0.197,0.804-1.244,1.13-1.965,1.242c-1.103,0.17-2.211-0.021-3.235-0.466
					C150.554,101.282,151.547,100.24,152.93,100.028z"/>
			</g>
		</g>
		<g>
			<path style="fill:#FF8C8D;" d="M205.604,213.615c0,0-13.425-3.66-20.735-17.135c0,0,11.746-22.469,17.538-29.778
				c5.792-7.309,21.294-14.809,42.777-14.573c0,0,22.013-4.261,44.798,7.545c22.786,11.806,36.56,53.94,36.56,53.94l-28.993,6.855
				l11.283,84.814c0,0-43.446,15.461-108.302,1.687C200.531,306.971,199.634,240.288,205.604,213.615z"/>
			<path style="fill:#F4686F;" d="M296.629,217.13c-1.573,0.32-3.146,0.639-4.719,0.959c-2.206-12.444-4.656-24.844-7.355-37.191
				c-0.476-2.176-3.815-1.255-3.34,0.921c2.813,12.871,5.359,25.799,7.637,38.776c0.169,0.965,1.286,1.381,2.13,1.21
				c2.189-0.445,4.378-0.89,6.567-1.334C299.732,220.026,298.809,216.687,296.629,217.13z"/>
			<path style="fill:#F4686F;" d="M213.783,181.66c-0.754,2.069-1.463,4.152-2.143,6.245c-0.389-2.298-0.739-4.601-1.035-6.913
				c-0.279-2.18-3.746-2.208-3.463,0c0.518,4.047,1.151,8.074,1.921,12.081c0.097,0.506,0.352,0.844,0.679,1.039
				c-1.638,5.707-3.014,11.488-4.105,17.333c-0.406,2.178,2.931,3.112,3.34,0.921c1.891-10.139,4.614-20.094,8.145-29.784
				C217.887,180.483,214.541,179.579,213.783,181.66z"/>
		</g>
		<g>
			<g>
				<path style="fill:#C1767D;" d="M220.443,150.591c0,0,26.777,4.398,60.016,2.283l1.239-26.323l-66.762-6.902
					C214.936,119.649,206.82,147.263,220.443,150.591z"/>
				<g>
					<path style="fill:#D9979C;" d="M250.319,55.522c6.01,0.488,31.241,4.118,40.104,18.964c8.863,14.845,8.863,45.163,8.863,45.163
						s11.743,4.912,11.3,19.314c0,0-5.305,11.871-30.127,13.912l-4.547-62.755c0,0-32.99,6.996-60.975-3.875l6.611,45.097
						c0,0-5.721,13.596-1.104,19.25c0,0-14.665,3.338-22.639-9.906c-7.974-13.244,4.656-19.788,4.656-19.788
						s4.336-35.333,7.153-44.196C212.431,67.839,224.174,53.398,250.319,55.522z"/>
					<path style="fill:#F7B0B3;" d="M239.217,131.989v22.77c0,0,8.982,11.04,25.543,0l-1.453-27.491L239.217,131.989z"/>
					<path style="fill:#FFC7CA;" d="M273.647,88.859c0,0-25.643,5.753-58.711-2.615c0,0-2.489,11.781-1.829,18.049
						c0,0-1.954,3.915-1.17,10.452c0.784,6.537,10.721,26.671,36.085,26.933c25.364,0.261,31.901-12.112,31.901-12.112
						l-4.168-41.613L273.647,88.859z"/>
					<g>
						<path style="fill:#E4B2B3;" d="M278.235,88.636c-0.279-2.012-3.333-1.155-3.056,0.843c2.844,20.521,3.865,41.28,3.117,61.982
							c-0.074,2.04,3.096,2.037,3.17,0C282.224,130.462,281.119,109.447,278.235,88.636z"/>
						<path style="fill:#E4B2B3;" d="M295.817,138.564c-0.915-3.735-2.828-6.706-4.855-9.903c-2.17-3.421-2.057-7.195-2.082-11.105
							c-0.028-4.218-0.17-8.435-0.424-12.646c-0.484-8.026-0.788-16.715-3.553-24.345c-2.252-6.213-6.483-11.144-11.784-14.997
							c-6.022-4.377-13.02-7.214-19.902-9.929c-0.834-0.329-1.46,0.078-1.741,0.701c-8.229-1.642-17.109,0.127-23.895,5.147
							c-7.586,5.613-11.991,14.598-10.801,24.086c0.251,1.997,3.423,2.022,3.17,0c-1.07-8.529,2.675-16.663,9.644-21.649
							c4.325-3.094,9.501-4.792,14.755-4.998c-2.951,2.131-4.804,5.76-6.05,9.299c-2.245,6.376-3.975,12.994-3.054,19.789
							c0.272,2.012,3.327,1.155,3.056-0.843c-0.762-5.625,0.761-11.239,2.52-16.535c1.396-4.202,3.506-10.076,8.752-10.411
							c0.615-0.039,1.043-0.359,1.286-0.782c0.183,0.037,0.366,0.075,0.549,0.116c0.021,0.166,0.066,0.336,0.146,0.509
							c4.137,8.966,4.691,19.26,1.709,28.652c-0.619,1.949,2.441,2.783,3.056,0.843c2.577-8.116,2.615-16.782,0.284-24.876
							c3.962,7.071,4.452,15.881,4.694,23.926c0.061,2.035,3.231,2.044,3.17,0c-0.283-9.419-1.021-19.735-6.413-27.612
							c9.658,4.101,19.479,9.556,23.491,19.61c2.83,7.093,3.138,15.224,3.643,22.759c0.268,4.004,0.434,8.014,0.498,12.026
							c0.058,3.66-0.267,7.529,0.777,11.088c1.095,3.732,4.03,6.516,5.424,10.128c1.473,3.815,1.869,7.974,1.116,11.993
							c-0.373,1.994,2.681,2.848,3.056,0.842C296.737,145.828,296.696,142.149,295.817,138.564z"/>
						<path style="fill:#E4B2B3;" d="M223.398,132.706c-0.833-0.679-1.575-1.458-2.354-2.208
							c-3.734,5.654-4.597,12.933-2.252,19.299c0.699,1.898,3.764,1.077,3.056-0.843
							C219.85,143.531,220.424,137.611,223.398,132.706z"/>
						<path style="fill:#E4B2B3;" d="M212.035,146.489c-4.532-1.708-7.936-5.879-8.519-10.715c-0.326-2.708,0.184-5.518,1.477-7.92
							c1.225-2.275,2.39-4.125,2.803-6.722c1.89-11.867,3.448-23.797,5.171-35.689c0.289-1.995-2.765-2.857-3.057-0.843
							c-0.953,6.577-1.905,13.155-2.858,19.732c-0.476,3.289-0.953,6.577-1.429,9.866c-0.238,1.644-0.475,3.289-0.714,4.933
							c-0.217,1.492-0.376,3.025-1.063,4.389c-1.286,2.554-2.795,4.715-3.305,7.603c-0.479,2.711-0.344,5.556,0.543,8.174
							c1.629,4.809,5.395,8.472,10.109,10.248C213.104,150.265,213.93,147.203,212.035,146.489z"/>
					</g>
				</g>
			</g>
			<g>
				<path style="fill:#FF8C8D;" d="M226.247,111.003c-1.9-1.572-4.503-1.74-6.525-0.758c-3.261,0.668-5.188,4.664-3.891,7.936
					c1.61,4.065,6.573,5.592,10.127,2.992C229.266,118.753,229.419,113.627,226.247,111.003z"/>
				<path style="fill:#FF8C8D;" d="M269.385,112.985c-2.215-1.733-5.436-2.672-8.036-1.246c-2.446,1.342-3.805,4.176-3.556,6.921
					c0.102,1.124,0.474,2.127,1.032,2.981c0.226,0.659,0.576,1.313,1.073,1.941c3.391,4.29,9.877,3.042,11.5-1.93
					C272.71,118.881,272.116,115.12,269.385,112.985z"/>
				<path style="fill:#410305;" d="M259.695,82.993c-8.379,0-15.453,5.674-17.595,13.38c-1.831-0.865-3.913-0.852-5.67,0.103
					c-2.107-7.759-9.208-13.483-17.624-13.483c-10.07,0-18.263,8.193-18.263,18.263s8.193,18.263,18.263,18.263
					c10.07,0,18.263-8.193,18.263-18.263c0-0.418-0.019-0.831-0.047-1.242c1.197-1.274,2.986-1.595,4.404-0.386
					c0.026,0.022,0.052,0.04,0.078,0.06c-0.044,0.518-0.072,1.04-0.072,1.569c0,10.07,8.193,18.263,18.263,18.263
					c10.07,0,18.263-8.193,18.263-18.263S269.765,82.993,259.695,82.993z M218.806,116.349c-8.322,0-15.093-6.771-15.093-15.093
					c0-8.323,6.771-15.093,15.093-15.093c8.323,0,15.093,6.771,15.093,15.093C233.899,109.578,227.128,116.349,218.806,116.349z
					 M259.695,116.349c-8.322,0-15.093-6.771-15.093-15.093c0-8.323,6.771-15.093,15.093-15.093c8.323,0,15.093,6.771,15.093,15.093
					C274.788,109.578,268.018,116.349,259.695,116.349z"/>
				<path style="fill:#FF8C8D;" d="M240.328,116.512c-5.07-1.596-6.382-8.33-2.004-11.536c1.629-1.193,0.049-3.945-1.6-2.737
					c-3.019,2.211-4.74,5.79-4.155,9.553c0.576,3.713,3.388,6.666,6.917,7.776C241.436,120.182,242.27,117.123,240.328,116.512z"/>
				<path style="fill:#FF8C8D;" d="M250.381,121.125c-4.399,2.567-9.587,2.928-14.333,1.119c-1.908-0.727-2.733,2.336-0.843,3.057
					c5.498,2.095,11.706,1.519,16.776-1.439C253.742,122.835,252.148,120.094,250.381,121.125z"/>
				<path style="fill:#410305;" d="M221.441,97.93c-0.222,0.028-0.436,0.081-0.646,0.147c-2.734-0.177-4.757,2.641-4.164,5.222
					c0.571,2.483,3.208,4.591,5.76,4.638C228.673,108.05,227.471,97.182,221.441,97.93z"/>
				<path style="fill:#410305;" d="M262.495,99.309c-0.222,0.028-0.436,0.081-0.646,0.147c-2.734-0.177-4.758,2.641-4.164,5.222
					c0.571,2.483,3.209,4.591,5.76,4.638C269.727,109.429,268.525,98.56,262.495,99.309z"/>
			</g>
		</g>
	</g>
</g>
</svg>
