<svg xmlns="http://www.w3.org/2000/svg" version="1.1" xmlns:xlink="http://www.w3.org/1999/xlink" xmlns:svgjs="http://svgjs.dev/svgjs" width="2000" height="1247" viewBox="0 0 2000 1247"><g transform="matrix(1,0,0,1,-1.2121212121212466,0.504858299595071)"><svg viewBox="0 0 396 247" data-background-color="#ffffff" preserveAspectRatio="xMidYMid meet" height="1247" width="2000" xmlns="http://www.w3.org/2000/svg" xmlns:xlink="http://www.w3.org/1999/xlink"><g id="tight-bounds" transform="matrix(1,0,0,1,0.2400000000000091,-0.09999999999999432)"><svg viewBox="0 0 395.52 247.2" height="247.2" width="395.52"><g><svg></svg></g><g><svg viewBox="0 0 395.52 247.2" height="247.2" width="395.52"><g><g><path d="M156.516 2.372c7.73-1.581 14.495-2.372 20.293-2.372 5.798 0 10.717 0.264 14.758 0.791 10.893 1.581 19.414 6.764 25.563 15.548 4.009 5.585 6.385 12.394 7.127 20.43l-15.15 0c-0.292-4.744-1.132-8.918-2.518-12.523-3.69-9.312-9.927-14.67-18.712-16.076-2.635-0.351-6.325-0.527-11.068-0.527-4.744 0-11.807 1.353-21.189 4.058-9.417 2.741-20.011 7.801-31.783 15.18-5.008 3.118-9.756 6.414-14.245 9.888l-19.925 0c21.295-18.071 43.578-29.537 66.849-34.397zM300.409 14.758c10.366-4.919 19.414-7.379 27.144-7.379 7.73 0 14.196 1.88 19.397 5.64 5.165 3.795 7.748 10.26 7.748 19.396 0 1.405-0.069 2.856-0.206 4.354l-20.821 0c0.081-0.417 0.15-0.814 0.207-1.191 0.351-1.581 0.527-3.075 0.527-4.48 0-7.379-4.304-11.069-12.913-11.069-5.798 0-12.386 1.933-19.766 5.798-6.315 3.017-12.561 6.664-18.737 10.942l-14.256 0c11.239-10.158 21.797-17.495 31.676-22.011zM280.643 216.102c0 4.568 0.615 8.697 1.845 12.387 2.46 8.082 7.203 12.123 14.231 12.123 3.865 0 7.871-0.966 12.017-2.899 4.111-1.933 7.221-2.899 9.33-2.899 2.108 0 3.162 1.142 3.162 3.426 0 2.284-1.669 4.357-5.007 6.219-3.338 1.827-6.061 2.741-8.17 2.741-28.111 0-42.166-12.211-42.166-36.632 0-0.046 0-0.092 0-0.137h14.994c-0.157 1.928-0.236 3.819-0.236 5.671zM161.787 218.211c-2.46 5.095-7.379 7.643-14.758 7.642-4.392 0-6.764-1.406-7.116-4.216-0.176-0.527-0.176-1.142 0-1.845 1.788-2.644 3.728-5.765 5.82-9.361l19.696 0c-2.232 4.793-3.446 7.387-3.642 7.78z" fill="#111111" fill-rule="nonzero" stroke="none" stroke-width="1" stroke-linecap="butt" stroke-linejoin="miter" stroke-miterlimit="10" stroke-dasharray="" stroke-dashoffset="0" font-family="none" font-weight="none" font-size="none" text-anchor="none" style="mix-blend-mode: normal" data-fill-palette-color="tertiary"></path></g></g><g transform="matrix(1,0,0,1,2.842170943040401e-14,64.61784419713831)"><svg viewBox="0 0 395.5199999999999 117.96431160572337" height="117.96431160572337" width="395.5199999999999"><g><svg viewBox="0 0 395.5199999999999 117.96431160572337" height="117.96431160572337" width="395.5199999999999"><g><svg viewBox="0 0 395.5199999999999 117.96431160572337" height="117.96431160572337" width="395.5199999999999"><g id="textblocktransform"><svg viewBox="0 0 395.5199999999999 117.96431160572337" height="117.96431160572337" width="395.5199999999999" id="textblock"><g><svg viewBox="0 0 395.5199999999999 117.96431160572337" height="117.96431160572337" width="395.5199999999999"><g transform="matrix(1,0,0,1,0,0)"><svg width="395.5199999999999" viewBox="-0.15 -39.6 157.24 46.9" height="117.96431160572337" data-palette-color="#111111"><path d="M21.15-18.15L21.15-18.15Q21.15-21.35 17.8-21.35L17.8-21.35Q17.4-21.35 16.93-21.3 16.45-21.25 16.32-21.43 16.2-21.6 16.4-21.8L16.4-21.8Q16.85-22.4 19.38-22.4 21.9-22.4 22.7-20.2L22.7-20.2Q23.05-19.35 23.05-18.4L23.05-18.4Q23.05-16.25 21.45-13.5L21.45-13.5Q18.75-9 14-7.1L14-7.1Q11.55-6.1 8.58-6.1 5.6-6.1 3.18-8.13 0.75-10.15 0-13.85L0-13.85Q-0.15-14.8-0.15-15.9L-0.15-15.9Q-0.15-18.9 1.45-22.88 3.05-26.85 6.8-30.5L6.8-30.5Q13.9-37.5 21.8-39.15L21.8-39.15Q24-39.6 25.65-39.6 27.3-39.6 28.45-39.45L28.45-39.45Q31.55-39 33.3-36.5L33.3-36.5Q34.7-34.55 34.7-31.55L34.7-31.55Q34.7-28.85 34.1-27.03 33.5-25.2 33.3-24.63 33.1-24.05 32.58-22.85 32.05-21.65 31.9-21.3 31.75-20.95 31.1-19.5L31.1-19.5Q29-14.95 29.1-14.9L29.1-14.9 30.65-17.4Q33.7-22.1 37.25-26.4L37.25-26.4Q43.85-34.4 49.1-36.8L49.1-36.8Q52.05-38.2 54.25-38.2 56.45-38.2 57.93-37.13 59.4-36.05 59.4-33.45 59.4-30.85 57.75-27.13 56.1-23.4 52.93-17.6 49.75-11.8 47.55-7.05 45.35-2.3 45.35 1.4L45.35 1.4Q45.35 2.7 45.7 3.75L45.7 3.75Q46.4 6.05 48.4 6.05L48.4 6.05Q49.5 6.05 50.68 5.5 51.85 4.95 52.45 4.95 53.05 4.95 53.05 5.6 53.05 6.25 52.1 6.78 51.15 7.3 50.55 7.3L50.55 7.3Q42.55 7.3 42.55 0.35L42.55 0.35Q42.55-2.2 43.43-4.8 44.3-7.4 49.65-18.65 55-29.9 55.45-32.85L55.45-32.85Q55.55-33.3 55.55-33.7L55.55-33.7Q55.55-35.8 53.1-35.8L53.1-35.8Q51.45-35.8 49.35-34.7L49.35-34.7Q41.5-30.95 34.4-20.35L34.4-20.35Q30.2-14.1 24.85-2.6L24.85-2.6Q22.9 1.6 22.8 1.8L22.8 1.8Q22.1 3.25 20 3.25L20 3.25Q18.75 3.25 18.65 2.45L18.65 2.45Q18.6 2.3 18.65 2.1L18.65 2.1Q21.05-1.45 25.38-11.03 29.7-20.6 31.3-27.7L31.3-27.7Q31.8-30.05 31.8-31.88 31.8-33.7 31.3-35L31.3-35Q30.25-37.65 27.75-38.05L27.75-38.05Q27-38.15 25.65-38.15 24.3-38.15 21.63-37.38 18.95-36.6 15.6-34.5L15.6-34.5Q8.05-29.8 4.65-22.25L4.65-22.25Q2.8-18.15 2.8-14.7L2.8-14.7Q2.8-12.95 3.25-11.4L3.25-11.4Q4.9-7.25 9.05-7.05L9.05-7.05Q14.2-7.05 18.05-11.35L18.05-11.35Q21.15-14.8 21.15-18.15ZM70-13.55Q69.1-12.65 67.45-9.47 65.8-6.3 65.47-4.73 65.15-3.15 65.15-2.18 65.15-1.2 65.9-1.2L65.9-1.2Q66.85-1.2 68.25-2.95L68.25-2.95Q70.3-5.5 72.3-9.6L72.3-9.6Q72.5-10.05 72.75-10.1L72.75-10.1Q73.15-10.25 73.15-9.8L73.15-9.8Q73.15-9.55 73-9.2L73-9.2Q68.4 0.1 65.25 0.1L65.25 0.1Q63.8 0.1 62.9-1.3L62.9-1.3Q62.45-2.05 62.45-3.3 62.45-4.55 62.95-6.35L62.95-6.35Q58.95 0.1 56.05 0.1L56.05 0.1Q55.25 0.1 54.6-0.4L54.6-0.4Q53.1-1.45 53.1-4L53.1-4Q53.1-8.9 57.35-13.95L57.35-13.95Q59.75-16.75 63.25-17.6L63.25-17.6Q64.2-17.85 65.05-17.85L65.05-17.85Q67.35-17.85 68.95-16.25L68.95-16.25Q69.45-15.7 69.25-15.2 69.05-14.7 68.4-14.8L68.4-14.8Q67.85-16.6 66-16.6L66-16.6Q63.85-16.6 60.7-13.2L60.7-13.2Q58.9-11.2 57.35-8.5L57.35-8.5Q55.4-5.25 55.4-3.3 55.4-1.35 56.65-1.35L56.65-1.35Q59.65-1.35 64.5-10.55L64.5-10.55Q65.45-12.4 66.1-13.08 66.75-13.75 67.75-13.75L67.75-13.75Q67.95-13.75 68.77-13.6 69.6-13.45 70-13.55L70-13.55ZM82.85-2.9L82.85-2.9Q82.85-1.3 84.15-1.3L84.15-1.3Q86.5-1.3 90.4-9.15L90.4-9.15Q90.55-9.45 90.67-9.75 90.8-10.05 91.07-10.15 91.35-10.25 91.45-10.03 91.55-9.8 91.35-9.3L91.35-9.3Q87.35 0 83.25 0L83.25 0Q81.9 0 81.1-1.2 80.3-2.4 80.3-3.58 80.3-4.75 80.55-5.75L80.55-5.75Q77.65-0.95 75.55-0.3L75.55-0.3Q74.95-0.05 74.37-0.05 73.8-0.05 73.25-0.2L73.25-0.2Q70.8-0.85 70.8-4.1L70.8-4.1Q70.8-6.3 71.92-8.97 73.05-11.65 75.1-14.1 77.15-16.55 80.05-17.4L80.05-17.4Q81.1-17.75 82.52-17.75 83.95-17.75 85.7-16.85L85.7-16.85Q89.1-23.25 91.5-28.7L91.5-28.7Q92.2-30.35 92.87-30.83 93.55-31.3 94.12-31.3 94.7-31.3 94.82-31.3 94.95-31.3 95.77-31.18 96.6-31.05 97.05-31.1L97.05-31.1Q95.9-30.05 90.95-20.9L90.95-20.9Q84.65-9.2 83.35-5.3L83.35-5.3Q82.85-3.85 82.85-2.9ZM85.3-16.05L85.3-16.05Q84.65-16.7 83.47-16.7 82.3-16.7 80.2-14.95L80.2-14.95Q76.85-12.15 74.65-8.05L74.65-8.05Q73.2-5.35 73.2-3.6L73.2-3.6Q73.2-2.8 73.52-2.15 73.85-1.5 74.55-1.5L74.55-1.5Q76.25-1.5 78.75-5 81.25-8.5 85.3-16.05ZM105.84-13.55Q104.94-12.65 103.29-9.47 101.64-6.3 101.32-4.73 100.99-3.15 100.99-2.18 100.99-1.2 101.74-1.2L101.74-1.2Q102.69-1.2 104.09-2.95L104.09-2.95Q106.14-5.5 108.14-9.6L108.14-9.6Q108.34-10.05 108.59-10.1L108.59-10.1Q108.99-10.25 108.99-9.8L108.99-9.8Q108.99-9.55 108.84-9.2L108.84-9.2Q104.24 0.1 101.09 0.1L101.09 0.1Q99.64 0.1 98.74-1.3L98.74-1.3Q98.29-2.05 98.29-3.3 98.29-4.55 98.79-6.35L98.79-6.35Q94.79 0.1 91.89 0.1L91.89 0.1Q91.09 0.1 90.44-0.4L90.44-0.4Q88.94-1.45 88.94-4L88.94-4Q88.94-8.9 93.19-13.95L93.19-13.95Q95.59-16.75 99.09-17.6L99.09-17.6Q100.04-17.85 100.89-17.85L100.89-17.85Q103.19-17.85 104.79-16.25L104.79-16.25Q105.29-15.7 105.09-15.2 104.89-14.7 104.24-14.8L104.24-14.8Q103.69-16.6 101.84-16.6L101.84-16.6Q99.69-16.6 96.54-13.2L96.54-13.2Q94.74-11.2 93.19-8.5L93.19-8.5Q91.24-5.25 91.24-3.3 91.24-1.35 92.49-1.35L92.49-1.35Q95.49-1.35 100.34-10.55L100.34-10.55Q101.29-12.4 101.94-13.08 102.59-13.75 103.59-13.75L103.59-13.75Q103.79-13.75 104.62-13.6 105.44-13.45 105.84-13.55L105.84-13.55ZM113.69 0.1Q112.99 0.7 112.14 0.7 111.29 0.7 110.84 0.18 110.39-0.35 110.39-0.75L110.39-0.75Q110.39-2.1 111.19-2.75 111.99-3.4 112.84-3.4 113.69-3.4 114.14-2.88 114.59-2.35 114.59-1.95 114.59-1.55 114.49-1.03 114.39-0.5 113.69 0.1ZM142.19-16.4L142.19-16.4Q136.09-5.55 136.09-2.4L136.09-2.4Q136.09-1 137.04-1L137.04-1Q138.24-1 139.79-2.8L139.79-2.8Q142.14-5.65 143.89-9.65L143.89-9.65Q144.19-10.35 144.49-10.2 144.79-10.05 144.79-9.8 144.79-9.55 144.29-8.55 143.79-7.55 143.49-6.95 143.19-6.35 142.16-4.65 141.14-2.95 140.41-2.15 139.69-1.35 138.56-0.58 137.44 0.2 136.01 0.2 134.59 0.2 133.59-1.2L133.59-1.2Q133.14-1.85 133.14-2.98 133.14-4.1 133.64-5.7 134.14-7.3 136.39-10.9L136.39-10.9Q136.94-11.8 136.94-12.33 136.94-12.85 136.11-12.85 135.29-12.85 133.14-10.85 130.99-8.85 128.61-5.45 126.24-2.05 125.79 0L125.79 0Q124.94 0 124.54-0.7 124.14-1.4 124.14-1.9L124.14-1.9Q124.14-3.95 126.89-9.7L126.89-9.7Q127.79-11.6 127.84-12.28 127.89-12.95 127.66-12.98 127.44-13 127.04-12.8L127.04-12.8Q126.14-12.35 124.29-10.6L124.29-10.6Q120.79-7.4 117.39-0.85L117.39-0.85Q117.14-0.3 116.76-0.18 116.39-0.05 115.29 0 114.19 0.05 113.84 0.25L113.84 0.25Q114.74-1.5 116.99-6.3L116.99-6.3Q121.04-14.9 122.39-16.2L122.39-16.2Q122.99-16.8 124.04-16.8L124.04-16.8Q124.24-16.8 125.06-16.65 125.89-16.5 126.29-16.6L126.29-16.6Q124.44-15.6 120.24-7.2L120.24-7.2Q122.59-10.1 123.61-11 124.64-11.9 125.14-12.35 125.64-12.8 125.91-13.05 126.19-13.3 126.71-13.78 127.24-14.25 127.51-14.48 127.79-14.7 128.29-15.1 128.79-15.5 129.06-15.63 129.34-15.75 129.81-16.05 130.29-16.35 130.51-16.35 130.74-16.35 131.14-16.48 131.54-16.6 131.69-16.4L131.69-16.4Q132.69-16 132.69-15.15L132.69-15.15Q132.69-14.4 130.99-11.3 129.29-8.2 128.79-7.2L128.79-7.2Q130.99-9.95 132.99-11.73 134.99-13.5 137.71-15 140.44-16.5 141.69-16.5L141.69-16.5Q141.99-16.5 142.19-16.4ZM146.09-7.7L146.09-7.7Q145.39-6 145.39-3.9L145.39-3.9Q145.39-2.5 146.01-1.68 146.64-0.85 147.79-0.85L147.79-0.85Q152.34-0.85 156.04-9.4L156.04-9.4Q156.39-10.2 156.89-10.1L156.89-10.1Q157.09-10.05 157.09-9.85 157.09-9.65 155.96-7.23 154.84-4.8 153.69-3.3L153.69-3.3Q151.14 0.2 147.39 0.2L147.39 0.2Q145.39 0.2 143.99-1.1 142.59-2.4 142.59-4.65 142.59-6.9 143.66-9.43 144.74-11.95 146.59-14.13 148.44-16.3 150.84-17.3L150.84-17.3Q151.99-17.8 153.04-17.8 154.09-17.8 154.99-17.2L154.99-17.2Q155.84-16.5 155.84-15.65L155.84-15.65Q155.84-12.65 152.24-9.9L152.24-9.9Q151.14-9.05 149.14-8.38 147.14-7.7 146.09-7.7ZM154.49-15.7L154.49-15.7Q154.49-16.7 153.69-16.7L153.69-16.7Q152.29-16.7 149.44-13.25L149.44-13.25Q147.74-11.15 146.44-8.55L146.44-8.55Q147.29-8.55 148.91-9.15 150.54-9.75 151.74-10.75L151.74-10.75Q154.49-13.1 154.49-15.7Z" opacity="1" transform="matrix(1,0,0,1,0,0)" fill="#111111" class="wordmark-text-0" data-fill-palette-color="primary" id="text-0"></path></svg></g></svg></g></svg></g></svg></g></svg></g></svg></g></svg></g><defs></defs></svg><rect width="395.52" height="247.2" fill="none" stroke="none" visibility="hidden"></rect></g></svg></g></svg>