<svg xmlns="http://www.w3.org/2000/svg" version="1.1" xmlns:xlink="http://www.w3.org/1999/xlink" xmlns:svgjs="http://svgjs.dev/svgjs" width="1000" height="1125" viewBox="0 0 1000 1125"><g transform="matrix(1,0,0,1,0,0)"><svg viewBox="0 0 320 360" data-background-color="#ffffff" preserveAspectRatio="xMidYMid meet" height="1125" width="1000" xmlns="http://www.w3.org/2000/svg" xmlns:xlink="http://www.w3.org/1999/xlink"><g id="tight-bounds" transform="matrix(1,0,0,1,0,0)"><svg viewBox="0 0 320 360" height="360" width="320"><g><svg></svg></g><g><svg viewBox="0 0 320 360" height="360" width="320"><g><path d="M320 187.111c0-45.764-20.238-86.866-52.203-114.908-28.043-31.964-69.145-52.203-114.908-52.203-84.302 0-152.889 68.587-152.889 152.889 0 45.753 20.231 86.848 52.185 114.891 28.043 31.975 69.152 52.22 114.926 52.22 0.299 0 0.59-0.021 0.889-0.021 0.299 0 0.59 0.021 0.889 0.021 83.456 0 151.111-67.655 151.111-151.111 0-0.299-0.021-0.59-0.021-0.889 0-0.299 0.021-0.59 0.021-0.889zM59.833 263.097c-15.093-21.255-24.071-47.143-24.256-75.097 0.48-72.928 59.492-131.943 132.423-132.423 27.954 0.185 53.845 9.163 75.097 24.256 24.366 23.627 39.57 56.64 39.57 93.056 0 71.559-58.219 129.778-129.778 129.778-36.416 0-69.429-15.204-93.056-39.57zM3.556 172.889c0-82.343 66.99-149.333 149.333-149.333 35.051 0 67.292 12.167 92.8 32.462-22.98-13.824-49.863-21.796-78.578-21.796-84.302 0-152.889 68.587-152.889 152.889 0 28.708 7.968 55.584 21.785 78.56-20.288-25.5-32.452-57.739-32.451-92.782zM167.111 318.667c-35.84 0-68.363-14.418-92.107-37.743 21.952 15.89 48.864 25.298 77.885 25.298 73.522 0 133.333-59.812 133.333-133.333 0-29.02-9.408-55.932-25.298-77.885 23.324 23.744 37.742 56.267 37.743 92.107 0 72.54-59.015 131.556-131.556 131.556z" fill="#20bcb1" fill-rule="nonzero" stroke="none" stroke-width="1" stroke-linecap="butt" stroke-linejoin="miter" stroke-miterlimit="10" stroke-dasharray="" stroke-dashoffset="0" font-family="none" font-weight="none" font-size="none" text-anchor="none" style="mix-blend-mode: normal" data-fill-palette-color="tertiary"></path></g><g transform="matrix(1,0,0,1,64,138.7503435639029)"><svg viewBox="0 0 192 82.49931287219422" height="82.49931287219422" width="192"><g><svg viewBox="0 0 192 82.49931287219422" height="82.49931287219422" width="192"><g><svg viewBox="0 0 192 82.49931287219422" height="82.49931287219422" width="192"><g id="textblocktransform"><svg viewBox="0 0 192 82.49931287219422" height="82.49931287219422" width="192" id="textblock"><g><svg viewBox="0 0 192 82.49931287219422" height="82.49931287219422" width="192"><g transform="matrix(1,0,0,1,0,0)"><svg width="192" viewBox="-0.15 -39.6 109.14 46.9" height="82.49931287219422" data-palette-color="#20bcb1"><path d="M21.15-18.15L21.15-18.15Q21.15-21.35 17.8-21.35L17.8-21.35Q17.4-21.35 16.93-21.3 16.45-21.25 16.32-21.43 16.2-21.6 16.4-21.8L16.4-21.8Q16.85-22.4 19.38-22.4 21.9-22.4 22.7-20.2L22.7-20.2Q23.05-19.35 23.05-18.4L23.05-18.4Q23.05-16.25 21.45-13.5L21.45-13.5Q18.75-9 14-7.1L14-7.1Q11.55-6.1 8.58-6.1 5.6-6.1 3.18-8.13 0.75-10.15 0-13.85L0-13.85Q-0.15-14.8-0.15-15.9L-0.15-15.9Q-0.15-18.9 1.45-22.88 3.05-26.85 6.8-30.5L6.8-30.5Q13.9-37.5 21.8-39.15L21.8-39.15Q24-39.6 25.65-39.6 27.3-39.6 28.45-39.45L28.45-39.45Q31.55-39 33.3-36.5L33.3-36.5Q34.7-34.55 34.7-31.55L34.7-31.55Q34.7-28.85 34.1-27.03 33.5-25.2 33.3-24.63 33.1-24.05 32.58-22.85 32.05-21.65 31.9-21.3 31.75-20.95 31.1-19.5L31.1-19.5Q29-14.95 29.1-14.9L29.1-14.9 30.65-17.4Q33.7-22.1 37.25-26.4L37.25-26.4Q43.85-34.4 49.1-36.8L49.1-36.8Q52.05-38.2 54.25-38.2 56.45-38.2 57.93-37.13 59.4-36.05 59.4-33.45 59.4-30.85 57.75-27.13 56.1-23.4 52.93-17.6 49.75-11.8 47.55-7.05 45.35-2.3 45.35 1.4L45.35 1.4Q45.35 2.7 45.7 3.75L45.7 3.75Q46.4 6.05 48.4 6.05L48.4 6.05Q49.5 6.05 50.68 5.5 51.85 4.95 52.45 4.95 53.05 4.95 53.05 5.6 53.05 6.25 52.1 6.78 51.15 7.3 50.55 7.3L50.55 7.3Q42.55 7.3 42.55 0.35L42.55 0.35Q42.55-2.2 43.43-4.8 44.3-7.4 49.65-18.65 55-29.9 55.45-32.85L55.45-32.85Q55.55-33.3 55.55-33.7L55.55-33.7Q55.55-35.8 53.1-35.8L53.1-35.8Q51.45-35.8 49.35-34.7L49.35-34.7Q41.5-30.95 34.4-20.35L34.4-20.35Q30.2-14.1 24.85-2.6L24.85-2.6Q22.9 1.6 22.8 1.8L22.8 1.8Q22.1 3.25 20 3.25L20 3.25Q18.75 3.25 18.65 2.45L18.65 2.45Q18.6 2.3 18.65 2.1L18.65 2.1Q21.05-1.45 25.38-11.03 29.7-20.6 31.3-27.7L31.3-27.7Q31.8-30.05 31.8-31.88 31.8-33.7 31.3-35L31.3-35Q30.25-37.65 27.75-38.05L27.75-38.05Q27-38.15 25.65-38.15 24.3-38.15 21.63-37.38 18.95-36.6 15.6-34.5L15.6-34.5Q8.05-29.8 4.65-22.25L4.65-22.25Q2.8-18.15 2.8-14.7L2.8-14.7Q2.8-12.95 3.25-11.4L3.25-11.4Q4.9-7.25 9.05-7.05L9.05-7.05Q14.2-7.05 18.05-11.35L18.05-11.35Q21.15-14.8 21.15-18.15ZM70-13.55Q69.1-12.65 67.45-9.47 65.8-6.3 65.47-4.73 65.15-3.15 65.15-2.18 65.15-1.2 65.9-1.2L65.9-1.2Q66.85-1.2 68.25-2.95L68.25-2.95Q70.3-5.5 72.3-9.6L72.3-9.6Q72.5-10.05 72.75-10.1L72.75-10.1Q73.15-10.25 73.15-9.8L73.15-9.8Q73.15-9.55 73-9.2L73-9.2Q68.4 0.1 65.25 0.1L65.25 0.1Q63.8 0.1 62.9-1.3L62.9-1.3Q62.45-2.05 62.45-3.3 62.45-4.55 62.95-6.35L62.95-6.35Q58.95 0.1 56.05 0.1L56.05 0.1Q55.25 0.1 54.6-0.4L54.6-0.4Q53.1-1.45 53.1-4L53.1-4Q53.1-8.9 57.35-13.95L57.35-13.95Q59.75-16.75 63.25-17.6L63.25-17.6Q64.2-17.85 65.05-17.85L65.05-17.85Q67.35-17.85 68.95-16.25L68.95-16.25Q69.45-15.7 69.25-15.2 69.05-14.7 68.4-14.8L68.4-14.8Q67.85-16.6 66-16.6L66-16.6Q63.85-16.6 60.7-13.2L60.7-13.2Q58.9-11.2 57.35-8.5L57.35-8.5Q55.4-5.25 55.4-3.3 55.4-1.35 56.65-1.35L56.65-1.35Q59.65-1.35 64.5-10.55L64.5-10.55Q65.45-12.4 66.1-13.08 66.75-13.75 67.75-13.75L67.75-13.75Q67.95-13.75 68.77-13.6 69.6-13.45 70-13.55L70-13.55ZM82.85-2.9L82.85-2.9Q82.85-1.3 84.15-1.3L84.15-1.3Q86.5-1.3 90.4-9.15L90.4-9.15Q90.55-9.45 90.67-9.75 90.8-10.05 91.07-10.15 91.35-10.25 91.45-10.03 91.55-9.8 91.35-9.3L91.35-9.3Q87.35 0 83.25 0L83.25 0Q81.9 0 81.1-1.2 80.3-2.4 80.3-3.58 80.3-4.75 80.55-5.75L80.55-5.75Q77.65-0.95 75.55-0.3L75.55-0.3Q74.95-0.05 74.37-0.05 73.8-0.05 73.25-0.2L73.25-0.2Q70.8-0.85 70.8-4.1L70.8-4.1Q70.8-6.3 71.92-8.97 73.05-11.65 75.1-14.1 77.15-16.55 80.05-17.4L80.05-17.4Q81.1-17.75 82.52-17.75 83.95-17.75 85.7-16.85L85.7-16.85Q89.1-23.25 91.5-28.7L91.5-28.7Q92.2-30.35 92.87-30.83 93.55-31.3 94.12-31.3 94.7-31.3 94.82-31.3 94.95-31.3 95.77-31.18 96.6-31.05 97.05-31.1L97.05-31.1Q95.9-30.05 90.95-20.9L90.95-20.9Q84.65-9.2 83.35-5.3L83.35-5.3Q82.85-3.85 82.85-2.9ZM85.3-16.05L85.3-16.05Q84.65-16.7 83.47-16.7 82.3-16.7 80.2-14.95L80.2-14.95Q76.85-12.15 74.65-8.05L74.65-8.05Q73.2-5.35 73.2-3.6L73.2-3.6Q73.2-2.8 73.52-2.15 73.85-1.5 74.55-1.5L74.55-1.5Q76.25-1.5 78.75-5 81.25-8.5 85.3-16.05ZM105.84-13.55Q104.94-12.65 103.29-9.47 101.64-6.3 101.32-4.73 100.99-3.15 100.99-2.18 100.99-1.2 101.74-1.2L101.74-1.2Q102.69-1.2 104.09-2.95L104.09-2.95Q106.14-5.5 108.14-9.6L108.14-9.6Q108.34-10.05 108.59-10.1L108.59-10.1Q108.99-10.25 108.99-9.8L108.99-9.8Q108.99-9.55 108.84-9.2L108.84-9.2Q104.24 0.1 101.09 0.1L101.09 0.1Q99.64 0.1 98.74-1.3L98.74-1.3Q98.29-2.05 98.29-3.3 98.29-4.55 98.79-6.35L98.79-6.35Q94.79 0.1 91.89 0.1L91.89 0.1Q91.09 0.1 90.44-0.4L90.44-0.4Q88.94-1.45 88.94-4L88.94-4Q88.94-8.9 93.19-13.95L93.19-13.95Q95.59-16.75 99.09-17.6L99.09-17.6Q100.04-17.85 100.89-17.85L100.89-17.85Q103.19-17.85 104.79-16.25L104.79-16.25Q105.29-15.7 105.09-15.2 104.89-14.7 104.24-14.8L104.24-14.8Q103.69-16.6 101.84-16.6L101.84-16.6Q99.69-16.6 96.54-13.2L96.54-13.2Q94.74-11.2 93.19-8.5L93.19-8.5Q91.24-5.25 91.24-3.3 91.24-1.35 92.49-1.35L92.49-1.35Q95.49-1.35 100.34-10.55L100.34-10.55Q101.29-12.4 101.94-13.08 102.59-13.75 103.59-13.75L103.59-13.75Q103.79-13.75 104.62-13.6 105.44-13.45 105.84-13.55L105.84-13.55Z" opacity="1" transform="matrix(1,0,0,1,0,0)" fill="#20bcb1" class="wordmark-text-0" data-fill-palette-color="primary" id="text-0"></path></svg></g></svg></g></svg></g></svg></g></svg></g></svg></g></svg></g><defs></defs></svg><rect width="320" height="360" fill="none" stroke="none" visibility="hidden"></rect></g></svg></g></svg>